<svg width="152" height="32" viewBox="0 0 152 32" fill="none" xmlns="http://www.w3.org/2000/svg">
<g clip-path="url(#clip0_2026_8)">
<path d="M86.5567 7.07184C86.5268 7.05686 86.4914 7.04001 86.4765 7.03065C86.4616 7.02316 86.4261 7.02877 86.3963 7.04375L82.29 9.0546C82.2602 9.06958 82.2639 9.08081 82.2956 9.08081H90.6014C90.6331 9.08081 90.6369 9.06958 90.607 9.0546L86.5567 7.07184Z" fill="white"/>
<path d="M86.4429 1C78.4802 1 72 7.50436 72 15.5009C72 23.4975 78.4802 30 86.4429 30C94.4056 30 100.884 23.4956 100.884 15.5009C100.884 7.50623 94.4056 1 86.4429 1ZM94.5809 23.9225C94.5809 23.9469 94.5622 23.9656 94.538 23.9656H78.3497C78.3254 23.9656 78.3068 23.9469 78.3068 23.9225V22.288C78.3068 22.2637 78.3254 22.2449 78.3497 22.2449H94.538C94.5622 22.2449 94.5809 22.2637 94.5809 22.288V23.9225ZM83.6793 19.6462V11.4118H85.5385V19.6499H87.3529V11.4137H89.2103V19.6499H91.0657V11.4137H92.9175V19.6499H93.7399V21.3256C93.7399 21.35 93.7212 21.3687 93.697 21.3687H79.1944C79.1702 21.3687 79.1515 21.35 79.1515 21.3256V19.6499H79.972V11.4137H81.8238V19.6481H83.6793V19.6462ZM95.1235 9.67435L94.6107 10.5787C94.5939 10.6068 94.5548 10.6311 94.5212 10.6311H78.3758C78.3441 10.6311 78.303 10.6068 78.2862 10.5787L77.7734 9.67435C77.7566 9.64627 77.7678 9.60882 77.7958 9.59384L86.3944 5.0011C86.4224 4.98612 86.4709 4.98612 86.4988 5.0011L95.0974 9.59384C95.1273 9.60882 95.1366 9.64627 95.1217 9.67435H95.1235Z" fill="white"/>
<path d="M108.347 22.4209C108.509 22.376 108.766 22.3311 109.115 22.2861C109.464 22.2412 109.794 22.2206 110.105 22.2206V10.8202C109.794 10.8202 109.464 10.7977 109.115 10.7528C108.766 10.7078 108.509 10.6629 108.347 10.618V9.0752H114.693C115.375 9.0752 116.021 9.13885 116.63 9.2643C117.238 9.38974 117.773 9.59944 118.234 9.88964C118.695 10.1798 119.055 10.5581 119.314 11.028C119.573 11.4961 119.704 12.0727 119.704 12.7561C119.704 13.6942 119.455 14.4375 118.961 14.9879C118.465 15.5384 117.814 15.9166 117.001 16.1244V16.1693C117.447 16.2442 117.876 16.3753 118.284 16.5606C118.695 16.7479 119.051 16.9913 119.357 17.289C119.661 17.5867 119.903 17.9424 120.082 18.3524C120.261 18.7625 120.351 19.238 120.351 19.7735C120.351 20.5205 120.209 21.159 119.927 21.6889C119.644 22.2187 119.254 22.6512 118.756 22.9882C118.258 23.3234 117.66 23.5705 116.96 23.7259C116.261 23.8832 115.487 23.9618 114.641 23.9618H108.352V22.4191L108.347 22.4209ZM112.576 15.3792H114.379C115.359 15.3792 116.071 15.1864 116.517 14.8007C116.962 14.415 117.184 13.8439 117.184 13.0875C117.184 11.6346 116.27 10.9063 114.445 10.9063H112.574V15.3773L112.576 15.3792ZM112.576 22.1083H114.544C115.648 22.1083 116.459 21.9154 116.981 21.5278C117.503 21.1403 117.764 20.5224 117.764 19.6724C117.764 18.8673 117.522 18.242 117.037 17.7945C116.552 17.347 115.758 17.1242 114.655 17.1242H112.576V22.1083Z" fill="white"/>
<path d="M121.328 22.4135C121.492 22.3686 121.747 22.3236 122.096 22.2787C122.445 22.2338 122.775 22.2113 123.086 22.2113V10.809C122.775 10.809 122.445 10.7866 122.096 10.7416C121.747 10.6986 121.492 10.6518 121.328 10.6087V9.06592H125.447L131.748 17.9406C132.104 18.433 132.431 18.9011 132.727 19.3486C133.024 19.796 133.21 20.1012 133.283 20.266H133.328C133.313 20.1181 133.298 19.8522 133.283 19.4721C133.268 19.0921 133.261 18.6184 133.261 18.0529V10.8109C132.949 10.8109 132.623 10.7884 132.282 10.7435C131.94 10.7004 131.689 10.6536 131.524 10.6106V9.06779H137.134V10.6106C136.972 10.6555 136.718 10.7004 136.377 10.7435C136.035 10.7884 135.717 10.8109 135.42 10.8109V23.9563H133.238L126.581 14.5892C126.419 14.3664 126.258 14.1398 126.102 13.9077C125.947 13.6774 125.809 13.4602 125.691 13.2599C125.572 13.0595 125.469 12.8835 125.378 12.7337C125.289 12.5858 125.229 12.481 125.201 12.4211H125.156C125.186 12.5559 125.207 12.8124 125.223 13.1925C125.238 13.5725 125.246 13.9414 125.246 14.299V22.2132C125.542 22.2282 125.865 22.2544 126.214 22.2918C126.562 22.3293 126.818 22.3686 126.982 22.4154V23.9582H121.326V22.4154L121.328 22.4135Z" fill="white"/>
<path d="M136.791 22.4059C136.908 22.3759 137.098 22.3422 137.358 22.3029C137.617 22.2654 137.874 22.2392 138.126 22.2243L143.291 9.07886H145.585L150.616 22.2243C150.883 22.2392 151.151 22.2654 151.418 22.3029C151.685 22.3403 151.879 22.374 151.998 22.4059V23.9674H146.588V22.4059C146.723 22.3759 146.915 22.3422 147.166 22.3029C147.418 22.2654 147.679 22.2392 147.946 22.2243L147.099 19.809H141.331L140.44 22.2243C140.707 22.2392 140.968 22.2654 141.22 22.3029C141.471 22.3403 141.665 22.374 141.8 22.4059V23.9674H136.791V22.4059ZM146.434 18.0659L145.141 14.3999C144.919 13.7746 144.737 13.2485 144.597 12.8235C144.457 12.3984 144.341 12.0371 144.252 11.7394H144.207C144.103 12.0521 143.978 12.4284 143.828 12.8684C143.679 13.3084 143.502 13.8176 143.295 14.3999L141.936 18.0659H146.434Z" fill="white"/>
</g>
<path d="M60 0V32" stroke="white"/>
<g clip-path="url(#clip1_2026_8)">
<path d="M28.5839 4.99316H16.4161V27.0067H28.5839V4.99316Z" fill="#FF5F00"/>
<path d="M17.1881 16C17.1881 11.5342 19.2658 7.5562 22.4992 4.99323C20.1337 3.11838 17.1494 2 13.9052 2C6.22546 2 0 8.26761 0 16C0 23.7324 6.22546 30 13.9052 30C17.1494 30 20.1337 28.8816 22.4992 27.0068C19.2643 24.4438 17.1881 20.4658 17.1881 16Z" fill="#EB001B"/>
<path d="M43.6726 24.6753V24.2248H43.8536V24.1331H43.3941V24.2248H43.5751V24.6753H43.6741H43.6726ZM44.5652 24.6753V24.1316H44.4245L44.262 24.5059L44.0996 24.1316H43.9588V24.6753H44.0578V24.2652L44.2094 24.6178H44.3131L44.4647 24.2636V24.6737H44.5637L44.5652 24.6753Z" fill="#F79E1B"/>
<path d="M45 16C45 23.7324 38.7746 30 31.0948 30C27.8506 30 24.8663 28.8816 22.5008 27.0068C25.7357 24.4438 27.8119 20.4658 27.8119 16C27.8119 11.5342 25.7342 7.5562 22.5008 4.99323C24.8647 3.11838 27.8491 2 31.0933 2C38.773 2 44.9985 8.26761 44.9985 16H45Z" fill="#F79E1B"/>
</g>
<defs>
<clipPath id="clip0_2026_8">
<rect width="80" height="29" fill="white" transform="translate(72 1)"/>
</clipPath>
<clipPath id="clip1_2026_8">
<rect width="45" height="28" fill="white" transform="translate(0 2)"/>
</clipPath>
</defs>
</svg>
