<svg width="54" height="54" viewBox="0 0 54 54" fill="none" xmlns="http://www.w3.org/2000/svg">
<circle cx="27" cy="27" r="27" fill="#009EC9"/>
<path d="M22.6912 17.1602L32.5729 11.4551L35.8746 17.1745L22.6912 17.1602Z" stroke="white" stroke-width="2.45455" stroke-linecap="round" stroke-linejoin="round"/>
<path d="M12.6814 18.6137C12.6814 18.234 12.8322 17.8698 13.1008 17.6013C13.3693 17.3327 13.7335 17.1819 14.1132 17.1819H39.8859C40.2657 17.1819 40.6299 17.3327 40.8984 17.6013C41.1669 17.8698 41.3178 18.234 41.3178 18.6137V38.6592C41.3178 39.0389 41.1669 39.4031 40.8984 39.6716C40.6299 39.9401 40.2657 40.091 39.8859 40.091H14.1132C13.7335 40.091 13.3693 39.9401 13.1008 39.6716C12.8322 39.4031 12.6814 39.0389 12.6814 38.6592V18.6137Z" stroke="white" stroke-width="2.45455" stroke-linejoin="round"/>
<path d="M35.0532 32.216H41.3174V25.0569H35.0532C32.9771 25.0569 31.2947 26.6598 31.2947 28.6364C31.2947 30.6131 32.9771 32.216 35.0532 32.216Z" stroke="white" stroke-width="2.45455" stroke-linejoin="round"/>
<path d="M41.3181 20.4036V37.5854" stroke="white" stroke-width="2.45455" stroke-linecap="round"/>
</svg>
