<svg width="170" height="49" viewBox="0 0 170 49" fill="none" xmlns="http://www.w3.org/2000/svg">
<g clip-path="url(#clip0_2006_885)">
<path d="M108.932 0V34.7749" stroke="white" stroke-width="0.285064" stroke-miterlimit="10"/>
<path d="M75.3355 44.7958C75.8388 44.7958 76.2082 44.9063 76.438 45.1245C76.6678 45.3426 76.7899 45.6393 76.7899 46.0175C76.7899 46.2473 76.7405 46.4625 76.6474 46.6574C76.5543 46.8552 76.3943 47.0123 76.1762 47.1344C75.958 47.2566 75.6555 47.3148 75.2715 47.3148H74.9167V48.7081H74.0876V44.7928H75.3384L75.3355 44.7958ZM75.2919 45.4764H74.9138V46.6399H75.1872C75.4228 46.6399 75.6031 46.5905 75.7399 46.4974C75.8766 46.4043 75.9493 46.256 75.9493 46.0465C75.9493 45.6684 75.7311 45.4764 75.2919 45.4764Z" fill="white"/>
<path d="M80.0391 44.7958C80.5714 44.7958 80.9641 44.8947 81.2171 45.0866C81.4702 45.2786 81.6011 45.5753 81.6011 45.968C81.6011 46.1484 81.5691 46.3025 81.4964 46.4334C81.4295 46.5643 81.3364 46.6807 81.2288 46.7738C81.1182 46.8668 80.999 46.9425 80.8739 47.0035L82.0258 48.7081H81.1037L80.1729 47.2072H79.7278V48.7081H78.8988V44.7928H80.0391V44.7958ZM79.978 45.4764H79.7249V46.5352H79.9925C80.266 46.5352 80.4638 46.4916 80.5859 46.3985C80.7081 46.3054 80.7605 46.1745 80.7605 45.9942C80.7605 45.8138 80.6935 45.6771 80.5685 45.5928C80.4434 45.5171 80.2456 45.4764 79.9751 45.4764H79.978Z" fill="white"/>
<path d="M85.3506 48.711H83.5704V48.2398L84.0474 48.0216V45.4881L83.5704 45.2699V44.7987H85.3506V45.2699L84.8735 45.4881V48.0216L85.3506 48.2398V48.711Z" fill="white"/>
<path d="M89.0448 48.711L88.1023 45.6422H88.0791C88.0791 45.712 88.0907 45.8226 88.0965 45.9709C88.1023 46.1193 88.114 46.2734 88.1198 46.4421C88.1256 46.6109 88.1314 46.7592 88.1314 46.893V48.7139H87.3926V44.7987H88.5212L89.4462 47.7918H89.4637L90.4439 44.7987H91.5725V48.7139H90.7988V46.861C90.7988 46.7359 90.7988 46.5934 90.8046 46.4334C90.8104 46.2734 90.8163 46.1222 90.8221 45.9796C90.8221 45.8371 90.8337 45.7266 90.8337 45.6568H90.8104L89.8011 48.7197H89.039L89.0448 48.7139V48.711Z" fill="white"/>
<path d="M96.3255 48.711L96.0405 47.7802H94.6151L94.3301 48.711H93.4371L94.8188 44.7812H95.8339L97.2214 48.711H96.3284H96.3255ZM95.8427 47.0821L95.5576 46.1716C95.5402 46.1105 95.514 46.0291 95.4878 45.936C95.4616 45.8429 95.4267 45.744 95.4005 45.6451C95.3743 45.5462 95.3453 45.4589 95.3307 45.3862C95.3133 45.456 95.2871 45.552 95.2551 45.6597C95.2231 45.7673 95.194 45.8691 95.1678 45.968C95.1416 46.0669 95.1184 46.1338 95.1067 46.1774L94.8275 47.0879H95.8485V47.0821H95.8427Z" fill="white"/>
<path d="M100.223 44.7958C100.756 44.7958 101.148 44.8947 101.401 45.0866C101.655 45.2786 101.785 45.5753 101.785 45.968C101.785 46.1484 101.753 46.3025 101.681 46.4334C101.614 46.5643 101.521 46.6807 101.413 46.7738C101.303 46.8668 101.183 46.9425 101.058 47.0035L102.21 48.7081H101.288L100.357 47.2072H99.9121V48.7081H99.0831V44.7928H100.223V44.7958ZM100.162 45.4764H99.9092V46.5352H100.177C100.45 46.5352 100.648 46.4916 100.77 46.3985C100.892 46.3054 100.945 46.1745 100.945 45.9942C100.945 45.8138 100.878 45.6771 100.753 45.5928C100.628 45.5171 100.43 45.4764 100.159 45.4764H100.162Z" fill="white"/>
<path d="M105.288 46.4072L106.105 44.7958H106.998L105.698 47.1868V48.711H104.875V47.2159L103.574 44.7987H104.473L105.285 46.4102L105.288 46.4072Z" fill="white"/>
<path d="M112.906 44.7958C113.409 44.7958 113.778 44.9063 114.008 45.1245C114.238 45.3426 114.36 45.6393 114.36 46.0175C114.36 46.2473 114.311 46.4625 114.218 46.6574C114.125 46.8552 113.965 47.0123 113.746 47.1344C113.528 47.2566 113.226 47.3148 112.842 47.3148H112.487V48.7081H111.658V44.7928H112.909L112.906 44.7958ZM112.862 45.4764H112.484V46.6399H112.757C112.993 46.6399 113.173 46.5905 113.31 46.4974C113.447 46.4043 113.52 46.256 113.52 46.0465C113.52 45.6684 113.301 45.4764 112.862 45.4764Z" fill="white"/>
<path d="M118.593 48.711L118.307 47.7802H116.882L116.597 48.711H115.704L117.086 44.7812H118.101L119.488 48.711H118.595H118.593ZM118.11 47.0821L117.825 46.1716C117.807 46.1105 117.781 46.0291 117.755 45.936C117.729 45.8429 117.694 45.744 117.667 45.6451C117.641 45.5462 117.612 45.4589 117.598 45.3862C117.58 45.456 117.554 45.552 117.522 45.6597C117.49 45.7673 117.461 45.8691 117.435 45.968C117.409 46.0669 117.385 46.1338 117.374 46.1774L117.094 47.0879H118.115V47.0821H118.11Z" fill="white"/>
<path d="M122.49 44.7958C123.023 44.7958 123.415 44.8947 123.668 45.0866C123.921 45.2786 124.052 45.5753 124.052 45.968C124.052 46.1484 124.02 46.3025 123.948 46.4334C123.881 46.5643 123.788 46.6807 123.68 46.7738C123.57 46.8668 123.45 46.9425 123.325 47.0035L124.477 48.7081H123.555L122.624 47.2072H122.179V48.7081H121.35V44.7928H122.49V44.7958ZM122.429 45.4764H122.176V46.5352H122.444C122.717 46.5352 122.915 46.4916 123.037 46.3985C123.159 46.3054 123.212 46.1745 123.212 45.9942C123.212 45.8138 123.145 45.6771 123.02 45.5928C122.895 45.5171 122.697 45.4764 122.426 45.4764H122.429Z" fill="white"/>
<path d="M127.845 48.711H127.016V45.4881H125.952V44.7987H128.907V45.4881H127.843V48.711H127.845Z" fill="white"/>
<path d="M134.353 48.711H133.3L131.595 45.7498H131.572C131.578 45.936 131.589 46.1222 131.595 46.3083C131.607 46.4945 131.612 46.6807 131.618 46.8668V48.7081H130.879V44.7928H131.927L133.625 47.7249H133.643C133.637 47.5446 133.625 47.3701 133.619 47.1868C133.614 47.0035 133.608 46.8261 133.602 46.6429V44.7899H134.347V48.7052H134.353V48.711Z" fill="white"/>
<path d="M138.963 48.711H136.709V44.7958H138.963V45.4764H137.538V46.3374H138.864V47.0181H137.538V48.0275H138.963V48.7139V48.711Z" fill="white"/>
<path d="M142.288 44.7958C142.82 44.7958 143.213 44.8947 143.466 45.0866C143.719 45.2786 143.85 45.5753 143.85 45.968C143.85 46.1484 143.818 46.3025 143.745 46.4334C143.678 46.5643 143.585 46.6807 143.477 46.7738C143.367 46.8668 143.248 46.9425 143.123 47.0035L144.275 48.7081H143.352L142.422 47.2072H141.977V48.7081H141.148V44.7928H142.288V44.7958ZM142.23 45.4764H141.977V46.5352H142.244C142.518 46.5352 142.715 46.4916 142.838 46.3985C142.96 46.3054 143.012 46.1745 143.012 45.9942C143.012 45.8138 142.945 45.6771 142.82 45.5928C142.695 45.5171 142.497 45.4764 142.227 45.4764H142.23Z" fill="white"/>
<path d="M51.1981 16.6529C51.1981 17.0427 51.0294 17.322 50.4971 17.322H47.0996C46.6603 17.322 46.4131 17.1969 46.4131 16.7896C46.4131 16.3824 46.5818 16.1817 47.0996 16.1817H51.201V16.6529H51.1981ZM66.1756 15.0473V14.5964C66.1756 14.1921 66.3443 13.9274 66.8941 13.9274H70.2916C70.757 13.9274 70.9926 14.0699 70.9926 14.5033C70.9926 14.8756 70.8064 15.0473 70.3236 15.0473H66.1727H66.1756ZM75.0882 12.0366V19.2069H78.5148V13.9884H81.3218C82.2701 13.9884 82.7588 14.2851 82.7588 15.2043V19.2127H86.1853V14.9251C86.1853 12.9122 85.0771 12.0424 81.9472 12.0424H75.0882V12.0366ZM66.641 12.0366C63.8834 12.0366 62.7752 12.9587 62.7752 15.0298V16.4493C62.7752 18.2411 63.8834 19.2069 66.3763 19.2069H73.6396V17.322H67.0628C66.4112 17.322 66.1901 17.1358 66.1901 16.6529V16.3562H71.3824C73.1742 16.3562 74.1894 15.7977 74.1894 14.4539V14.1252C74.1894 12.9093 73.5814 12.0366 70.5446 12.0366H66.641ZM55.6224 19.2069H59.049V14.5033C59.049 14.1921 59.1741 13.9884 59.5929 13.9884H62.2574V12.0424H58.441C56.402 12.0424 55.6166 12.8046 55.6166 14.0815V19.2069H55.6224ZM43.9028 12.0366V13.9215H50.3371C50.977 13.9215 51.1923 14.1397 51.1923 14.608V14.8873H46.0175C43.8533 14.8873 43.193 15.7745 43.193 16.9147V17.194C43.193 18.7676 44.4525 19.2069 46.9309 19.2069H50.7356C53.4321 19.2069 54.6014 18.5989 54.6014 16.4813V14.8146C54.6014 13.0227 53.4931 12.0395 50.9828 12.0395H43.8941L43.8999 12.0337L43.9028 12.0366ZM23.4014 16.0275C23.4014 18.2848 24.5533 19.2069 27.529 19.2069H34.0564V17.2783H28.0265C27.308 17.2783 26.8251 16.9496 26.8251 15.9257V15.3003C26.8251 14.3782 27.276 13.9914 28.009 13.9914H34.0564V12.0454H27.436C24.5097 12.0454 23.4014 13.2787 23.4014 15.2421V16.0363V16.0304V16.0275ZM35.0891 10.9022V19.2069H42.5385V17.2609H38.5215V10.9022H35.0891ZM13.6947 15.5447V10.9022H11.7662C10.5648 10.9022 9.88125 11.3851 9.16277 11.9435L0 19.2069H4.12761L10.207 14.2851V19.2069H13.0577L18.9509 14.2502V19.2069H22.4415V10.9022H20.5392C19.5094 10.9022 18.7968 11.324 18.0783 11.9174L13.6976 15.5476H13.6918L13.6947 15.5447Z" fill="white"/>
<path d="M94.4289 4.87222C92.5149 4.87222 89.8184 5.44235 86.898 6.50989C84.4575 7.40289 82.0461 8.53733 79.4427 10.1837C80.9669 9.55833 83.9805 8.8573 86.4588 8.8573C89.8068 8.8573 92.1979 10.1401 88.6724 14.64C99.0656 7.83049 98.7805 4.87222 94.4289 4.87222Z" fill="#FF8000"/>
<path d="M20.1465 29.8589H19.4454V26.4875H21.374V27.0751H20.1465V27.9419H21.2867V28.5237H20.1465V29.8618V29.8589Z" fill="white"/>
<path d="M26.9648 28.1718C26.9648 28.7303 26.828 29.1578 26.5488 29.4604C26.2695 29.7629 25.8739 29.9112 25.3591 29.9112C24.8442 29.9112 24.4486 29.7629 24.1694 29.4604C23.8901 29.1578 23.7534 28.7303 23.7534 28.1718C23.7534 27.6133 23.8901 27.1857 24.1694 26.889C24.4486 26.5923 24.8442 26.4439 25.3649 26.4439C25.8856 26.4439 26.2812 26.5923 26.5546 26.8948C26.828 27.1915 26.9648 27.6249 26.9648 28.1834V28.1718ZM24.5097 28.1718C24.5097 28.5499 24.5795 28.8292 24.7221 29.0211C24.8646 29.2131 25.0769 29.3062 25.362 29.3062C25.9321 29.3062 26.2172 28.9281 26.2172 28.1718C26.2172 27.4155 25.9321 27.0315 25.3678 27.0315C25.0827 27.0315 24.8704 27.1246 24.7279 27.3166C24.5853 27.5086 24.5097 27.7936 24.5097 28.1659V28.1718Z" fill="white"/>
<path d="M30.275 28.5644V29.8589H29.5623V26.4875H30.5426C31.0022 26.4875 31.3367 26.569 31.5578 26.7406C31.7759 26.9064 31.8865 27.1624 31.8865 27.5027C31.8865 27.7005 31.8312 27.875 31.7207 28.0292C31.6101 28.1834 31.4589 28.3026 31.2611 28.3899L32.253 29.8589H31.4589L30.6531 28.5644H30.275ZM30.275 27.9827H30.5048C30.7288 27.9827 30.9004 27.9449 31.0022 27.8663C31.1127 27.7907 31.1622 27.6743 31.1622 27.5114C31.1622 27.3485 31.1069 27.238 30.9964 27.1711C30.8858 27.1042 30.7171 27.0722 30.4873 27.0722H30.2692V27.9827H30.275Z" fill="white"/>
<path d="M36.0809 29.8589L35.2694 27.2176H35.2461C35.2723 27.7558 35.2897 28.1165 35.2897 28.291V29.8589H34.6527V26.4875H35.6243L36.4184 29.0647H36.4358L37.2794 26.4875H38.2509V29.8589H37.5877V28.0059C37.5877 27.907 37.5993 27.6452 37.6197 27.2235H37.5964L36.7296 29.8589H36.078H36.0809Z" fill="white"/>
<path d="M43.7399 26.4875V28.6691C43.7399 28.9164 43.6846 29.1346 43.5741 29.3207C43.4635 29.5069 43.3006 29.6494 43.0912 29.7541C42.8818 29.853 42.6316 29.9025 42.3466 29.9025C41.9131 29.9025 41.5786 29.792 41.3372 29.568C41.0958 29.3498 40.9765 29.0415 40.9765 28.6575V26.4875H41.6892V28.5499C41.6892 28.8088 41.7444 29.0008 41.8491 29.12C41.9539 29.2393 42.1284 29.3004 42.3698 29.3004C42.6113 29.3004 42.7712 29.2393 42.8789 29.12C42.9836 29.0008 43.0389 28.8088 43.0389 28.5441V26.4875H43.7515H43.7399Z" fill="white"/>
<path d="M46.4567 29.8589V26.4875H47.1693V29.2655H48.5336V29.8589H46.4509H46.4567Z" fill="white"/>
<path d="M53.304 29.8589L53.0568 29.059H51.8293L51.582 29.8589H50.8141L52.0038 26.476H52.8764L54.072 29.8589H53.304ZM52.8881 28.4569C52.6641 27.7267 52.5361 27.3166 52.5041 27.2235C52.4779 27.1304 52.4547 27.0548 52.443 26.9995C52.3936 27.1973 52.2452 27.686 52.0096 28.4569H52.8881Z" fill="white"/>
<path d="M60.4568 29.859H59.7442V27.5901C59.7442 27.529 59.7442 27.4708 59.75 27.4098C59.75 27.3487 59.75 27.2934 59.7558 27.241C59.75 27.2527 59.7326 27.2643 59.718 27.2847C59.7035 27.305 59.6802 27.3225 59.6569 27.3458C59.6337 27.369 59.6075 27.3894 59.5871 27.4127C59.5668 27.4359 59.5377 27.4563 59.5173 27.4737L59.1275 27.785L58.7814 27.3574L59.8664 26.4906H60.4539V29.8619H60.4598L60.4568 29.859Z" fill="white"/>
<path d="M69.0204 29.859H68.3078V27.084H67.3915V26.4906H69.9338V27.084H69.0175V29.859H69.0204Z" fill="white"/>
<path d="M74.3144 29.859H72.3743V26.4877H74.3144V27.0752H73.0869V27.8141H74.2272V28.4017H73.0869V29.2685H74.3144V29.8619V29.859Z" fill="white"/>
<path d="M79.1344 29.859L78.8871 29.059H77.6596L77.4123 29.859H76.6444L77.8341 26.476H78.7068L79.9023 29.859H79.1344ZM78.7184 28.4569C78.4944 27.7268 78.3664 27.3167 78.3344 27.2236C78.3083 27.1305 78.285 27.0549 78.2733 26.9996C78.2239 27.1974 78.0756 27.6861 77.8399 28.4569H78.7184Z" fill="white"/>
<path d="M83.7274 29.859L82.9158 27.2178H82.8925C82.9187 27.7559 82.9362 28.1166 82.9362 28.2911V29.859H82.2991V26.4877H83.2707L84.0648 29.0649H84.0822L84.9258 26.4877H85.8973V29.859H85.2341V28.0061C85.2341 27.9072 85.2458 27.6454 85.2661 27.2236H85.2429L84.376 29.859H83.7245H83.7274Z" fill="white"/>
<path d="M62.2283 28.4889C62.08 28.4889 61.9433 28.4627 61.824 28.4133C61.6989 28.3638 61.5942 28.294 61.5011 28.2009C61.4139 28.1078 61.3411 28.0031 61.2917 27.878C61.2422 27.7588 61.2161 27.6192 61.2161 27.4766C61.2161 27.3341 61.2422 27.1974 61.2917 27.0723C61.3411 26.9472 61.4168 26.8425 61.504 26.7494C61.5971 26.6622 61.7018 26.5894 61.8269 26.5371C61.952 26.4847 62.0858 26.4615 62.2225 26.4615C62.3592 26.4615 62.5018 26.4876 62.6239 26.5371C62.7432 26.5924 62.8537 26.6622 62.9468 26.7552C63.0399 26.8483 63.1126 26.9589 63.1592 27.0781C63.2086 27.1974 63.2348 27.3312 63.2348 27.4679C63.2348 27.6046 63.2086 27.7472 63.1592 27.8693C63.1097 27.9886 63.0399 28.0991 62.9468 28.1922C62.8537 28.2853 62.749 28.358 62.6239 28.4045C62.5047 28.454 62.365 28.4802 62.2225 28.4802L62.2283 28.4918V28.4889ZM62.2283 28.3784C62.3534 28.3784 62.4756 28.3551 62.5832 28.3086C62.6937 28.2649 62.7868 28.198 62.8683 28.1166C62.9497 28.0351 63.0108 27.9362 63.0603 27.8257C63.1039 27.7152 63.1301 27.6017 63.1301 27.4737C63.1301 27.3457 63.1068 27.2323 63.0632 27.1218C63.0195 27.0112 62.9526 26.9181 62.877 26.8309C62.7956 26.7494 62.7025 26.6825 62.5919 26.6331C62.4814 26.5836 62.3621 26.5633 62.2371 26.5633C62.112 26.5633 61.9898 26.5865 61.8822 26.6302C61.7717 26.6738 61.6786 26.7407 61.5971 26.8221C61.5157 26.9036 61.4546 26.9967 61.4051 27.1072C61.3615 27.2177 61.3382 27.337 61.3382 27.4621C61.3382 27.5872 61.3615 27.7035 61.4051 27.8141C61.4488 27.9246 61.5099 28.0177 61.5913 28.1049C61.6728 28.1864 61.7658 28.2533 61.8764 28.3027C61.9869 28.3522 62.1062 28.3725 62.2371 28.3725L62.2254 28.3784H62.2283ZM61.8938 28.038V26.9094H62.2167C62.3418 26.9094 62.4349 26.9356 62.5018 26.9909C62.5687 27.0461 62.6007 27.1276 62.6007 27.2381C62.6007 27.3196 62.5774 27.3865 62.5338 27.4417C62.4901 27.4912 62.4407 27.529 62.3738 27.5523L62.6763 28.0497H62.5221L62.2487 27.5843H62.0247V28.0497H61.8938V28.038ZM62.0247 27.4621H62.2051C62.2807 27.4621 62.3476 27.4446 62.397 27.4068C62.4465 27.369 62.4727 27.3137 62.4727 27.241C62.4727 27.1683 62.4494 27.1101 62.4029 27.0752C62.3563 27.0403 62.2923 27.0258 62.2109 27.0258H62.0247V27.465V27.4592V27.4621Z" fill="white"/>
<path d="M153.618 6.4808H141.476V28.2969H153.618V6.4808Z" fill="#FF5F00"/>
<path d="M142.244 17.3889C142.244 12.9588 144.315 9.01735 147.544 6.48086C145.182 4.62213 142.203 3.51387 138.972 3.51387C131.307 3.51387 125.097 9.72419 125.097 17.3889C125.097 25.0537 131.307 31.264 138.972 31.264C142.212 31.264 145.188 30.1557 147.544 28.297C144.315 25.7547 142.244 21.8132 142.244 17.3889Z" fill="#EB001B"/>
<path d="M170 17.3889C170 25.0536 163.79 31.2639 156.125 31.2639C152.885 31.2639 149.909 30.1557 147.553 28.2969C150.782 25.7546 152.853 21.8132 152.853 17.3889C152.853 12.9646 150.782 9.01731 147.553 6.48082C149.915 4.62208 152.893 3.51382 156.125 3.51382C163.79 3.51382 170 9.72415 170 17.3889Z" fill="#F79E1B"/>
</g>
<defs>
<clipPath id="clip0_2006_885">
<rect width="170" height="48.7169" fill="white"/>
</clipPath>
</defs>
</svg>
