<svg width="196" height="44" viewBox="0 0 196 44" fill="none" xmlns="http://www.w3.org/2000/svg">
<g clip-path="url(#clip0_2026_26)">
<path d="M109.572 9.58055C109.533 9.561 109.487 9.539 109.467 9.52677C109.448 9.517 109.401 9.52433 109.362 9.54388L104.001 12.1693C103.962 12.1888 103.967 12.2035 104.008 12.2035H114.853C114.894 12.2035 114.899 12.1888 114.86 12.1693L109.572 9.58055Z" fill="white"/>
<path d="M109.423 1.65283C99.0271 1.65283 90.5664 10.1451 90.5664 20.5856C90.5664 31.0261 99.0271 39.5159 109.423 39.5159C119.82 39.5159 128.278 31.0236 128.278 20.5856C128.278 10.1475 119.82 1.65283 109.423 1.65283ZM120.048 31.581C120.048 31.6127 120.024 31.6372 119.992 31.6372H98.8566C98.825 31.6372 98.8006 31.6127 98.8006 31.581V29.4469C98.8006 29.4151 98.825 29.3907 98.8566 29.3907H119.992C120.024 29.3907 120.048 29.4151 120.048 29.4469V31.581ZM105.815 25.9977V15.2468H108.243V26.0026H110.611V15.2492H113.036V26.0026H115.459V15.2492H117.877V26.0026H118.95V28.1904C118.95 28.2222 118.926 28.2467 118.894 28.2467H99.9596C99.9279 28.2467 99.9036 28.2222 99.9036 28.1904V26.0026H100.975V15.2492H103.393V26.0002H105.815V25.9977ZM120.757 12.9782L120.087 14.1589C120.066 14.1956 120.014 14.2274 119.971 14.2274H98.8907C98.8493 14.2274 98.7958 14.1956 98.7739 14.1589L98.1043 12.9782C98.0824 12.9416 98.097 12.8927 98.1335 12.8731L109.36 6.87675C109.397 6.85719 109.46 6.85719 109.496 6.87675L120.723 12.8731C120.762 12.8927 120.774 12.9416 120.755 12.9782H120.757Z" fill="white"/>
<path d="M138.022 29.6203C138.233 29.5616 138.569 29.5029 139.025 29.4443C139.48 29.3856 139.911 29.3587 140.318 29.3587V14.4741C139.911 14.4741 139.48 14.4448 139.025 14.3861C138.569 14.3274 138.233 14.2687 138.022 14.2101V12.1958H146.307C147.198 12.1958 148.04 12.2789 148.837 12.4427C149.63 12.6065 150.329 12.8803 150.931 13.2592C151.532 13.6381 152.002 14.1319 152.34 14.7454C152.679 15.3566 152.849 16.1095 152.849 17.0017C152.849 18.2264 152.525 19.1969 151.88 19.9156C151.232 20.6342 150.383 21.128 149.321 21.3994V21.458C149.903 21.5558 150.463 21.7269 150.996 21.969C151.532 22.2134 151.997 22.5312 152.396 22.9199C152.793 23.3085 153.11 23.773 153.343 24.3083C153.577 24.8437 153.694 25.4646 153.694 26.1637C153.694 27.1391 153.509 27.9727 153.141 28.6645C152.771 29.3563 152.262 29.9209 151.612 30.361C150.962 30.7985 150.181 31.1212 149.268 31.3241C148.355 31.5294 147.344 31.6321 146.239 31.6321H138.029V29.6178L138.022 29.6203ZM143.544 20.4265H145.898C147.176 20.4265 148.106 20.1747 148.688 19.6711C149.27 19.1675 149.56 18.422 149.56 17.4344C149.56 15.5374 148.367 14.5865 145.983 14.5865H143.541V20.424L143.544 20.4265ZM143.544 29.212H146.112C147.554 29.212 148.613 28.9603 149.294 28.4542C149.976 27.9482 150.317 27.1415 150.317 26.0317C150.317 24.9806 150 24.1641 149.367 23.5799C148.734 22.9956 147.697 22.7048 146.258 22.7048H143.544V29.212Z" fill="white"/>
<path d="M154.969 29.6105C155.183 29.5518 155.517 29.4932 155.972 29.4345C156.428 29.3758 156.859 29.3465 157.265 29.3465V14.4594C156.859 14.4594 156.428 14.4301 155.972 14.3714C155.517 14.3152 155.183 14.2541 154.969 14.1979V12.1836H160.348L168.574 23.7706C169.04 24.4135 169.466 25.0246 169.853 25.6088C170.24 26.1931 170.483 26.5915 170.578 26.8067H170.637C170.617 26.6135 170.598 26.2664 170.578 25.7702C170.559 25.2739 170.549 24.6555 170.549 23.9172V14.4619C170.142 14.4619 169.716 14.4325 169.271 14.3739C168.825 14.3177 168.497 14.2565 168.282 14.2003V12.186H175.606V14.2003C175.394 14.259 175.063 14.3177 174.617 14.3739C174.172 14.4325 173.756 14.4619 173.368 14.4619V31.6248H170.52L161.828 19.3949C161.616 19.104 161.407 18.8082 161.202 18.5051C161 18.2044 160.82 17.9209 160.666 17.6593C160.511 17.3977 160.377 17.1679 160.257 16.9724C160.141 16.7793 160.063 16.6424 160.026 16.5642H159.968C160.007 16.7402 160.033 17.0751 160.055 17.5713C160.075 18.0675 160.085 18.5491 160.085 19.016V29.3489C160.472 29.3685 160.893 29.4027 161.348 29.4516C161.804 29.5005 162.137 29.5518 162.351 29.6129V31.6272H154.967V29.6129L154.969 29.6105Z" fill="white"/>
<path d="M175.158 29.6007C175.312 29.5616 175.56 29.5176 175.898 29.4663C176.237 29.4174 176.573 29.3831 176.901 29.3636L183.646 12.2007H186.64L193.209 29.3636C193.557 29.3831 193.908 29.4174 194.256 29.4663C194.604 29.5152 194.858 29.5592 195.013 29.6007V31.6394H187.95V29.6007C188.126 29.5616 188.376 29.5176 188.705 29.4663C189.034 29.4174 189.375 29.3831 189.723 29.3636L188.617 26.2102H181.087L179.923 29.3636C180.271 29.3831 180.612 29.4174 180.941 29.4663C181.269 29.5152 181.523 29.5592 181.698 29.6007V31.6394H175.158V29.6007ZM187.748 23.9343L186.061 19.148C185.771 18.3315 185.533 17.6446 185.35 17.0897C185.167 16.5348 185.016 16.063 184.9 15.6743H184.841C184.705 16.0826 184.542 16.5739 184.347 17.1484C184.152 17.7228 183.921 18.3877 183.651 19.148L181.876 23.9343H187.748Z" fill="white"/>
</g>
<g clip-path="url(#clip1_2026_26)">
<path d="M37.3201 6.86621H21.4336V35.6076H37.3201V6.86621Z" fill="#FF5F00"/>
<path d="M22.4411 21.2372C22.4411 15.4066 25.1539 10.2128 29.3755 6.86652C26.287 4.41868 22.3906 2.9585 18.1549 2.9585C8.12809 2.9585 0 11.1416 0 21.2372C0 31.3328 8.12809 39.5159 18.1549 39.5159C22.3906 39.5159 26.287 38.0557 29.3755 35.6079C25.1518 32.2616 22.4411 27.0678 22.4411 21.2372Z" fill="#EB001B"/>
<path d="M57.0198 32.5638V31.9757H57.2562V31.856H56.6562V31.9757H56.8926V32.5638H57.0219H57.0198ZM58.1853 32.5638V31.854H58.0015L57.7894 32.3428L57.5773 31.854H57.3935V32.5638H57.5228V32.0284L57.7207 32.4888H57.8561L58.054 32.0264V32.5618H58.1833L58.1853 32.5638Z" fill="#F79E1B"/>
<path d="M58.7524 21.2372C58.7524 31.3328 50.6243 39.5159 40.5975 39.5159C36.3618 39.5159 32.4654 38.0557 29.377 35.6079C33.6006 32.2616 36.3113 27.0678 36.3113 21.2372C36.3113 15.4066 33.5986 10.2128 29.377 6.86652C32.4634 4.41868 36.3598 2.9585 40.5955 2.9585C50.6223 2.9585 58.7504 11.1416 58.7504 21.2372H58.7524Z" fill="#F79E1B"/>
</g>
<path d="M74.8994 1V42.7799" stroke="white" stroke-width="1.30562"/>
<defs>
<clipPath id="clip0_2026_26">
<rect width="104.45" height="37.863" fill="white" transform="translate(90.5664 1.65283)"/>
</clipPath>
<clipPath id="clip1_2026_26">
<rect width="58.753" height="36.5574" fill="white" transform="translate(0 2.9585)"/>
</clipPath>
</defs>
</svg>
