<svg width="211" height="61" viewBox="0 0 211 61" fill="none" xmlns="http://www.w3.org/2000/svg">
<g clip-path="url(#clip0_2006_1200)">
<path d="M135.405 0.521423V43.4787" stroke="white" stroke-width="0.352138" stroke-miterlimit="10"/>
<path d="M93.9026 55.8575C94.5242 55.8575 94.9806 55.9941 95.2644 56.2636C95.5483 56.5331 95.6992 56.8996 95.6992 57.3667C95.6992 57.6506 95.6381 57.9165 95.5231 58.1572C95.4082 58.4015 95.2105 58.5956 94.941 58.7465C94.6715 58.8974 94.2978 58.9693 93.8235 58.9693H93.3852V60.6904H92.3611V55.8539H93.9062L93.9026 55.8575ZM93.8487 56.6984H93.3816V58.1357H93.7193C94.0104 58.1357 94.2332 58.0746 94.402 57.9596C94.5709 57.8446 94.6608 57.6613 94.6608 57.4026C94.6608 56.9355 94.3913 56.6984 93.8487 56.6984Z" fill="white"/>
<path d="M99.7128 55.8575C100.37 55.8575 100.855 55.9797 101.168 56.2169C101.481 56.454 101.642 56.8205 101.642 57.3056C101.642 57.5284 101.603 57.7188 101.513 57.8805C101.43 58.0422 101.315 58.186 101.182 58.3009C101.046 58.4159 100.899 58.5093 100.744 58.5848L102.167 60.6904H101.028L99.878 58.8363H99.3283V60.6904H98.3042V55.8539H99.7128V55.8575ZM99.6373 56.6984H99.3247V58.0063H99.6553C99.993 58.0063 100.237 57.9524 100.388 57.8374C100.539 57.7224 100.604 57.5607 100.604 57.3379C100.604 57.1152 100.521 56.9463 100.367 56.8421C100.212 56.7487 99.9679 56.6984 99.6337 56.6984H99.6373Z" fill="white"/>
<path d="M106.274 60.6938H104.075V60.1117L104.664 59.8422V56.7125L104.075 56.443V55.8609H106.274V56.443L105.685 56.7125V59.8422L106.274 60.1117V60.6938Z" fill="white"/>
<path d="M110.837 60.6938L109.673 56.9029H109.644C109.644 56.9892 109.659 57.1257 109.666 57.309C109.673 57.4922 109.688 57.6827 109.695 57.8911C109.702 58.0995 109.709 58.2827 109.709 58.448V60.6974H108.796V55.8609H110.191L111.333 59.5583H111.355L112.566 55.8609H113.96V60.6974H113.004V58.4085C113.004 58.254 113.004 58.0779 113.011 57.8803C113.018 57.6827 113.026 57.4958 113.033 57.3197C113.033 57.1437 113.047 57.0071 113.047 56.9209H113.018L111.772 60.7046H110.83L110.837 60.6974V60.6938Z" fill="white"/>
<path d="M119.831 60.694L119.479 59.5442H117.718L117.366 60.694H116.263L117.97 55.8396H119.224L120.938 60.694H119.835H119.831ZM119.235 58.6818L118.883 57.5571C118.861 57.4817 118.829 57.3811 118.796 57.2661C118.764 57.1511 118.721 57.0289 118.689 56.9068C118.656 56.7846 118.62 56.6768 118.602 56.587C118.581 56.6732 118.548 56.7918 118.509 56.9247C118.469 57.0577 118.434 57.1834 118.401 57.3056C118.369 57.4278 118.34 57.5104 118.326 57.5643L117.981 58.689H119.242V58.6818H119.235Z" fill="white"/>
<path d="M124.646 55.8575C125.304 55.8575 125.789 55.9797 126.102 56.2169C126.414 56.454 126.576 56.8205 126.576 57.3056C126.576 57.5284 126.536 57.7188 126.447 57.8805C126.364 58.0422 126.249 58.186 126.116 58.3009C125.979 58.4159 125.832 58.5093 125.678 58.5848L127.101 60.6904H125.961L124.812 58.8363H124.262V60.6904H123.238V55.8539H124.646V55.8575ZM124.571 56.6984H124.258V58.0063H124.589C124.927 58.0063 125.171 57.9524 125.322 57.8374C125.473 57.7224 125.537 57.5607 125.537 57.3379C125.537 57.1152 125.455 56.9463 125.3 56.8421C125.146 56.7487 124.901 56.6984 124.567 56.6984H124.571Z" fill="white"/>
<path d="M130.902 57.8482L131.912 55.8575H133.015L131.409 58.8112V60.6941H130.392V58.8471L128.786 55.8611H129.896L130.898 57.8518L130.902 57.8482Z" fill="white"/>
<path d="M140.313 55.8575C140.934 55.8575 141.391 55.9941 141.675 56.2636C141.958 56.5331 142.109 56.8996 142.109 57.3667C142.109 57.6506 142.048 57.9165 141.933 58.1572C141.818 58.4015 141.621 58.5956 141.351 58.7465C141.082 58.8974 140.708 58.9693 140.234 58.9693H139.795V60.6904H138.771V55.8539H140.316L140.313 55.8575ZM140.259 56.6984H139.792V58.1357H140.129C140.421 58.1357 140.643 58.0746 140.812 57.9596C140.981 57.8446 141.071 57.6613 141.071 57.4026C141.071 56.9355 140.801 56.6984 140.259 56.6984Z" fill="white"/>
<path d="M147.338 60.694L146.985 59.5442H145.225L144.873 60.694H143.77L145.476 55.8396H146.73L148.444 60.694H147.341H147.338ZM146.741 58.6818L146.389 57.5571C146.367 57.4817 146.335 57.3811 146.303 57.2661C146.27 57.1511 146.227 57.0289 146.195 56.9068C146.163 56.7846 146.127 56.6768 146.109 56.587C146.087 56.6732 146.055 56.7918 146.015 56.9247C145.976 57.0577 145.94 57.1834 145.908 57.3056C145.875 57.4278 145.846 57.5104 145.832 57.5643L145.487 58.689H146.748V58.6818H146.741Z" fill="white"/>
<path d="M152.152 55.8575C152.81 55.8575 153.295 55.9797 153.608 56.2169C153.92 56.454 154.082 56.8205 154.082 57.3056C154.082 57.5284 154.042 57.7188 153.953 57.8805C153.87 58.0422 153.755 58.186 153.622 58.3009C153.486 58.4159 153.338 58.5093 153.184 58.5848L154.607 60.6904H153.468L152.318 58.8363H151.768V60.6904H150.744V55.8539H152.152V55.8575ZM152.077 56.6984H151.764V58.0063H152.095C152.433 58.0063 152.677 57.9524 152.828 57.8374C152.979 57.7224 153.044 57.5607 153.044 57.3379C153.044 57.1152 152.961 56.9463 152.806 56.8421C152.652 56.7487 152.408 56.6984 152.073 56.6984H152.077Z" fill="white"/>
<path d="M158.768 60.6938H157.744V56.7125H156.429V55.8609H160.079V56.7125H158.764V60.6938H158.768Z" fill="white"/>
<path d="M166.806 60.6941H165.505L163.4 57.0361H163.371C163.378 57.2661 163.392 57.4961 163.4 57.726C163.414 57.956 163.421 58.186 163.428 58.4159V60.6905H162.516V55.854H163.809L165.908 59.4759H165.929C165.922 59.2532 165.908 59.0376 165.9 58.8112C165.893 58.5848 165.886 58.3656 165.879 58.1393V55.8504H166.799V60.6869H166.806V60.6941Z" fill="white"/>
<path d="M172.501 60.6941H169.717V55.8575H172.501V56.6984H170.741V57.762H172.379V58.6028H170.741V59.8496H172.501V60.6976V60.6941Z" fill="white"/>
<path d="M176.608 55.8575C177.266 55.8575 177.751 55.9797 178.064 56.2169C178.376 56.454 178.538 56.8205 178.538 57.3056C178.538 57.5284 178.498 57.7188 178.408 57.8805C178.326 58.0422 178.211 58.186 178.078 58.3009C177.941 58.4159 177.794 58.5093 177.64 58.5848L179.062 60.6904H177.923L176.774 58.8363H176.224V60.6904H175.2V55.8539H176.608V55.8575ZM176.536 56.6984H176.224V58.0063H176.554C176.892 58.0063 177.136 57.9524 177.287 57.8374C177.438 57.7224 177.503 57.5607 177.503 57.3379C177.503 57.1152 177.42 56.9463 177.266 56.8421C177.111 56.7487 176.867 56.6984 176.533 56.6984H176.536Z" fill="white"/>
<path d="M64.086 21.0928C64.086 21.5743 63.8776 21.9193 63.22 21.9193H59.0231C58.4805 21.9193 58.1751 21.7648 58.1751 21.2617C58.1751 20.7587 58.3835 20.5107 59.0231 20.5107H64.0896V21.0928H64.086ZM82.5876 19.1094V18.5524C82.5876 18.0529 82.796 17.726 83.4752 17.726H87.6721C88.247 17.726 88.538 17.902 88.538 18.4374C88.538 18.8974 88.3081 19.1094 87.7116 19.1094H82.584H82.5876ZM93.5973 15.3903V24.2477H97.8302V17.8014H101.298C102.469 17.8014 103.073 18.1679 103.073 19.3034V24.2549H107.306V18.9584C107.306 16.4719 105.937 15.3975 102.07 15.3975H93.5973V15.3903ZM83.1625 15.3903C79.7561 15.3903 78.3871 16.5294 78.3871 19.0878V20.8413C78.3871 23.0547 79.7561 24.2477 82.8356 24.2477H91.8079V21.9193H83.6836C82.8787 21.9193 82.6056 21.6893 82.6056 21.0928V20.7263H89.0195C91.233 20.7263 92.487 20.0364 92.487 18.3763V17.9703C92.487 16.4683 91.736 15.3903 87.9847 15.3903H83.1625ZM69.5513 24.2477H73.7842V18.4374C73.7842 18.0529 73.9387 17.8014 74.4561 17.8014H77.7475V15.3975H73.0332C70.5143 15.3975 69.5441 16.339 69.5441 17.9164V24.2477H69.5513ZM55.0741 15.3903V17.7188H63.0224C63.8129 17.7188 64.0788 17.9883 64.0788 18.5668V18.9117H57.6864C55.0131 18.9117 54.1974 20.0077 54.1974 21.4162V21.7612C54.1974 23.7051 55.7533 24.2477 58.8147 24.2477H63.5147C66.8456 24.2477 68.2901 23.4967 68.2901 20.8808V18.8219C68.2901 16.6085 66.9211 15.3939 63.8201 15.3939H55.0634L55.0706 15.3868L55.0741 15.3903ZM29.749 20.3203C29.749 23.1086 31.1719 24.2477 34.8478 24.2477H42.911V21.8654H35.4622C34.5747 21.8654 33.9782 21.4593 33.9782 20.1945V19.422C33.9782 18.2829 34.5352 17.805 35.4407 17.805H42.911V15.4011H34.7328C31.118 15.4011 29.749 16.9247 29.749 19.3501V20.3311V20.3239V20.3203ZM44.1866 13.989V24.2477H53.3889V21.8438H48.4266V13.989H44.1866ZM17.7583 19.7238V13.989H15.376C13.892 13.989 13.0476 14.5855 12.16 15.2754L0.841309 24.2477H5.94012L13.45 18.1679V24.2477H16.9714L24.2513 18.1248V24.2477H28.5632V13.989H26.2132C24.9412 13.989 24.0609 14.51 23.1733 15.243L17.7619 19.7274H17.7547L17.7583 19.7238Z" fill="white"/>
<path d="M117.489 6.54025C115.124 6.54025 111.793 7.24453 108.186 8.56325C105.171 9.66638 102.192 11.0677 98.9763 13.1015C100.859 12.329 104.582 11.463 107.643 11.463C111.779 11.463 114.733 13.0476 110.378 18.6064C123.216 10.1946 122.864 6.54025 117.489 6.54025Z" fill="#FF8000"/>
<path d="M25.728 37.4062H24.8621V33.2416H27.2444V33.9675H25.728V35.0382H27.1366V35.7569H25.728V37.4098V37.4062Z" fill="white"/>
<path d="M34.1505 35.3221C34.1505 36.012 33.9817 36.5402 33.6367 36.9139C33.2917 37.2876 32.8031 37.4708 32.1671 37.4708C31.5311 37.4708 31.0424 37.2876 30.6974 36.9139C30.3525 36.5402 30.1836 36.012 30.1836 35.3221C30.1836 34.6322 30.3525 34.104 30.6974 33.7375C31.0424 33.371 31.5311 33.1877 32.1742 33.1877C32.8174 33.1877 33.3061 33.371 33.6439 33.7446C33.9817 34.1112 34.1505 34.6466 34.1505 35.3365V35.3221ZM31.1178 35.3221C31.1178 35.7892 31.2041 36.1342 31.3801 36.3713C31.5562 36.6085 31.8185 36.7234 32.1707 36.7234C32.8749 36.7234 33.2271 36.2563 33.2271 35.3221C33.2271 34.3878 32.8749 33.9135 32.1778 33.9135C31.8257 33.9135 31.5634 34.0285 31.3873 34.2657C31.2113 34.5028 31.1178 34.855 31.1178 35.3149V35.3221Z" fill="white"/>
<path d="M38.2397 35.8072V37.4062H37.3594V33.2416H38.5703C39.138 33.2416 39.5513 33.3422 39.8243 33.5542C40.0938 33.7591 40.2304 34.0753 40.2304 34.4957C40.2304 34.74 40.1621 34.9556 40.0256 35.146C39.889 35.3365 39.7022 35.4838 39.4578 35.5916L40.6831 37.4062H39.7022L38.7068 35.8072H38.2397ZM38.2397 35.0886H38.5236C38.8003 35.0886 39.0123 35.0418 39.138 34.9448C39.2746 34.8514 39.3357 34.7077 39.3357 34.5064C39.3357 34.3052 39.2674 34.1687 39.1308 34.086C38.9943 34.0034 38.7859 33.9639 38.502 33.9639H38.2325V35.0886H38.2397Z" fill="white"/>
<path d="M45.4117 37.4062L44.4092 34.1435H44.3805C44.4128 34.8083 44.4344 35.2538 44.4344 35.4694V37.4062H43.6475V33.2416H44.8476L45.8286 36.4252H45.8501L46.8922 33.2416H48.0923V37.4062H47.273V35.1173C47.273 34.9951 47.2874 34.6717 47.3126 34.1507H47.2838L46.213 37.4062H45.4082H45.4117Z" fill="white"/>
<path d="M54.8728 33.2416V35.9366C54.8728 36.242 54.8045 36.5115 54.668 36.7414C54.5315 36.9714 54.3302 37.1475 54.0715 37.2768C53.8128 37.399 53.5038 37.4601 53.1516 37.4601C52.6163 37.4601 52.203 37.3236 51.9048 37.0469C51.6066 36.7774 51.4592 36.3965 51.4592 35.9222V33.2416H52.3396V35.7892C52.3396 36.109 52.4078 36.3462 52.5372 36.4935C52.6666 36.6408 52.8822 36.7163 53.1804 36.7163C53.4786 36.7163 53.6763 36.6408 53.8092 36.4935C53.9386 36.3462 54.0068 36.109 54.0068 35.782V33.2416H54.8872H54.8728Z" fill="white"/>
<path d="M58.2291 37.4062V33.2416H59.1095V36.6732H60.7947V37.4062H58.2219H58.2291Z" fill="white"/>
<path d="M66.6874 37.4062L66.382 36.4181H64.8656L64.5602 37.4062H63.6116L65.0812 33.2272H66.1592L67.636 37.4062H66.6874ZM66.1736 35.6743C65.8969 34.7723 65.7388 34.2657 65.6992 34.1507C65.6669 34.0357 65.6382 33.9423 65.6238 33.874C65.5627 34.1184 65.3794 34.722 65.0884 35.6743H66.1736Z" fill="white"/>
<path d="M75.5231 37.4063H74.6427V34.6036C74.6427 34.5281 74.6427 34.4563 74.6499 34.3808C74.6499 34.3054 74.6499 34.2371 74.6571 34.1724C74.6499 34.1868 74.6284 34.2012 74.6104 34.2263C74.5924 34.2515 74.5637 34.273 74.5349 34.3018C74.5062 34.3305 74.4739 34.3557 74.4487 34.3844C74.4235 34.4132 74.3876 34.4383 74.3625 34.4599L73.881 34.8444L73.4534 34.3161L74.7936 33.2454H75.5195V37.4099H75.5267L75.5231 37.4063Z" fill="white"/>
<path d="M86.1018 37.4063H85.2215V33.9784H84.0896V33.2454H87.2301V33.9784H86.0982V37.4063H86.1018Z" fill="white"/>
<path d="M92.6413 37.4063H90.2446V33.2418H92.6413V33.9676H91.125V34.8803H92.5335V35.6061H91.125V36.6769H92.6413V37.4099V37.4063Z" fill="white"/>
<path d="M98.5953 37.4061L98.2899 36.4179H96.7736L96.4682 37.4061H95.5195L96.9892 33.2271H98.0671L99.544 37.4061H98.5953ZM98.0815 35.6741C97.8048 34.7722 97.6467 34.2656 97.6072 34.1506C97.5749 34.0356 97.5461 33.9422 97.5318 33.8739C97.4707 34.1183 97.2874 34.7219 96.9964 35.6741H98.0815Z" fill="white"/>
<path d="M104.269 37.4063L103.267 34.1437H103.238C103.27 34.8084 103.292 35.254 103.292 35.4696V37.4063H102.505V33.2418H103.705L104.686 36.4254H104.708L105.75 33.2418H106.95V37.4063H106.13V35.1174C106.13 34.9953 106.145 34.6719 106.17 34.1509H106.141L105.07 37.4063H104.266H104.269Z" fill="white"/>
<path d="M77.7116 35.7137C77.5284 35.7137 77.3595 35.6813 77.2122 35.6202C77.0577 35.5591 76.9283 35.4729 76.8133 35.3579C76.7055 35.2429 76.6157 35.1136 76.5546 34.9591C76.4935 34.8118 76.4612 34.6393 76.4612 34.4632C76.4612 34.2871 76.4935 34.1183 76.5546 33.9637C76.6157 33.8092 76.7091 33.6799 76.8169 33.5649C76.9319 33.4571 77.0613 33.3673 77.2158 33.3026C77.3703 33.2379 77.5356 33.2092 77.7044 33.2092C77.8733 33.2092 78.0494 33.2415 78.2003 33.3026C78.3476 33.3709 78.4842 33.4571 78.5992 33.5721C78.7141 33.6871 78.804 33.8236 78.8615 33.9709C78.9226 34.1183 78.9549 34.2835 78.9549 34.4524C78.9549 34.6213 78.9226 34.7974 78.8615 34.9483C78.8004 35.0956 78.7141 35.2322 78.5992 35.3471C78.4842 35.4621 78.3548 35.552 78.2003 35.6095C78.053 35.6705 77.8805 35.7029 77.7044 35.7029L77.7116 35.7173V35.7137ZM77.7116 35.5771C77.8661 35.5771 78.0171 35.5484 78.15 35.4909C78.2865 35.437 78.4015 35.3543 78.5021 35.2537C78.6028 35.1531 78.6782 35.0309 78.7393 34.8944C78.7932 34.7579 78.8255 34.6177 78.8255 34.4596C78.8255 34.3015 78.7968 34.1614 78.7429 34.0248C78.689 33.8883 78.6064 33.7733 78.5129 33.6655C78.4123 33.5649 78.2973 33.4823 78.1608 33.4212C78.0242 33.3601 77.8769 33.3349 77.7224 33.3349C77.5679 33.3349 77.417 33.3637 77.284 33.4176C77.1475 33.4715 77.0325 33.5541 76.9319 33.6547C76.8313 33.7553 76.7558 33.8703 76.6947 34.0069C76.6408 34.1434 76.6121 34.2907 76.6121 34.4452C76.6121 34.5998 76.6408 34.7435 76.6947 34.88C76.7486 35.0166 76.8241 35.1316 76.9247 35.2394C77.0253 35.34 77.1403 35.4226 77.2768 35.4837C77.4134 35.5448 77.5607 35.5699 77.7224 35.5699L77.708 35.5771H77.7116ZM77.2984 35.1567V33.7625H77.6973C77.8518 33.7625 77.9668 33.7949 78.0494 33.8631C78.132 33.9314 78.1716 34.032 78.1716 34.1686C78.1716 34.2692 78.1428 34.3518 78.0889 34.4201C78.035 34.4812 77.9739 34.5279 77.8913 34.5566L78.265 35.1711H78.0746L77.7368 34.5962H77.4601V35.1711H77.2984V35.1567ZM77.4601 34.4452H77.6829C77.7763 34.4452 77.859 34.4237 77.92 34.377C77.9811 34.3303 78.0135 34.262 78.0135 34.1722C78.0135 34.0823 77.9847 34.0105 77.9272 33.9673C77.8697 33.9242 77.7907 33.9063 77.6901 33.9063H77.4601V34.4488V34.4417V34.4452Z" fill="white"/>
<path d="M190.604 8.52736H175.606V35.4767H190.604V8.52736Z" fill="#FF5F00"/>
<path d="M176.554 22.0019C176.554 16.5294 179.113 11.6605 183.101 8.52723C180.184 6.23115 176.504 4.86212 172.512 4.86212C163.044 4.86212 155.372 12.5337 155.372 22.0019C155.372 31.4701 163.044 39.1417 172.512 39.1417C176.515 39.1417 180.191 37.7727 183.101 35.4766C179.113 32.3361 176.554 27.4672 176.554 22.0019Z" fill="#EB001B"/>
<path d="M210.841 22.002C210.841 31.4702 203.17 39.1417 193.701 39.1417C189.698 39.1417 186.023 37.7727 183.112 35.4766C187.101 32.3361 189.659 27.4673 189.659 22.002C189.659 16.5366 187.101 11.6606 183.112 8.52729C186.03 6.23121 189.709 4.86218 193.701 4.86218C203.17 4.86218 210.841 12.5338 210.841 22.002Z" fill="#F79E1B"/>
</g>
<defs>
<clipPath id="clip0_2006_1200">
<rect width="210" height="60.1797" fill="white" transform="translate(0.841309 0.521484)"/>
</clipPath>
</defs>
</svg>
